<svg xmlns="http://www.w3.org/2000/svg" viewBox="0 0 512 512" fill="none">
  <defs>
    <linearGradient id="bgGrad" x1="0%" y1="0%" x2="100%" y2="100%">
      <stop offset="0%" stop-color="#3B82F6" />
      <stop offset="100%" stop-color="#1D4ED8" />
    </linearGradient>
  </defs>

  <!-- Outer background circle -->
  <circle cx="256" cy="256" r="240" fill="url(#bgGrad)" />
  
  <!-- Subtle inner border ring -->
  <circle cx="256" cy="256" r="222" stroke="rgba(255, 255, 255, 0.25)" stroke-width="10" fill="none" />

  <!-- Rakebig RS Monogram Emblem -->
  <!-- Letter R (White) -->
  <path d="M140 356V156h85c36 0 58 18 58 48 0 21-12 36-31 43l42 109h-46l-37-96h-27v96h-44zm44-130h41c15 0 24-7 24-19s-9-19-24-19h-41v38z" fill="#FFFFFF" />

  <!-- Letter S (Accent Light Blue) -->
  <path d="M308 356c28 0 48-18 48-44 0-42-56-30-56-54 0-9 9-14 20-14 12 0 24 4 33 11l16-30c-13-10-31-16-50-16-30 0-48 18-48 44 0 42 56 30 56 54 0 9-10 15-22 15-16 0-30-6-40-16l-17 30c15 14 36 20 60 20z" fill="#93C5FD" />
</svg>
